name Run_200 02_newCOP3_v24.mot
datacolumns 19
datarows 10
range 2.74500000 2.75400000
endheader
                time	   R_ground_force_vx	   R_ground_force_vy	   R_ground_force_vz	   R_ground_force_px	   R_ground_force_py	   R_ground_force_pz	   L_ground_force_vx	   L_ground_force_vy	   L_ground_force_vz	   L_ground_force_px	   L_ground_force_py	   L_ground_force_pz	   R_ground_torque_x	   R_ground_torque_y	   R_ground_torque_z	   L_ground_torque_x	   L_ground_torque_y	   L_ground_torque_z	
          2.74500000	        -25.57661400	       1189.58227500	        -39.37063600	          0.88396700	          0.00000000	         -0.27366800	          0.00000000	          0.00000000	          0.00000000	          0.00000000	          0.00000000	          0.00000000	         -0.00000000	          2.81185600	         -0.00000000	          0.00000000	          0.00000000	          0.00000000	
          2.74600000	        -24.43369500	       1186.39965800	        -39.63716100	          0.88273300	          0.00000000	         -0.27348800	          0.00000000	          0.00000000	          0.00000000	          0.00000000	          0.00000000	          0.00000000	         -0.00000000	          2.77532800	         -0.00000000	          0.00000000	          0.00000000	          0.00000000	
          2.74700000	        -23.23413800	       1183.19140600	        -39.86018400	          0.88149600	          0.00000000	         -0.27330800	          0.00000000	          0.00000000	          0.00000000	          0.00000000	          0.00000000	          0.00000000	         -0.00000000	          2.73892300	         -0.00000000	          0.00000000	          0.00000000	          0.00000000	
          2.74800000	        -21.97815500	       1179.95764200	        -40.04232400	          0.88025700	          0.00000000	         -0.27313000	          0.00000000	          0.00000000	          0.00000000	          0.00000000	          0.00000000	          0.00000000	         -0.00000000	          2.70266200	         -0.00000000	          0.00000000	          0.00000000	          0.00000000	
          2.74900000	        -20.66687800	       1176.69751000	        -40.18629800	          0.87901500	          0.00000000	         -0.27295300	          0.00000000	          0.00000000	          0.00000000	          0.00000000	          0.00000000	          0.00000000	         -0.00000000	          2.66656400	         -0.00000000	          0.00000000	          0.00000000	          0.00000000	
          2.75000000	        -19.30236800	       1173.40954600	        -40.29478100	          0.87777000	          0.00000000	         -0.27277700	          0.00000000	          0.00000000	          0.00000000	          0.00000000	          0.00000000	          0.00000000	         -0.00000000	          2.63064400	         -0.00000000	          0.00000000	          0.00000000	          0.00000000	
          2.75100000	        -17.88757500	       1170.09106400	        -40.37028900	          0.87652200	          0.00000000	         -0.27260300	          0.00000000	          0.00000000	          0.00000000	          0.00000000	          0.00000000	          0.00000000	         -0.00000000	          2.59491800	         -0.00000000	          0.00000000	          0.00000000	          0.00000000	
          2.75200000	        -16.42627100	       1166.73901400	        -40.41511200	          0.87527100	          0.00000000	         -0.27243100	          0.00000000	          0.00000000	          0.00000000	          0.00000000	          0.00000000	          0.00000000	         -0.00000000	          2.55939800	         -0.00000000	          0.00000000	          0.00000000	          0.00000000	
          2.75300000	        -14.92295400	       1163.34948700	        -40.43124800	          0.87401500	          0.00000000	         -0.27226100	          0.00000000	          0.00000000	          0.00000000	          0.00000000	          0.00000000	          0.00000000	         -0.00000000	          2.52409700	         -0.00000000	          0.00000000	          0.00000000	          0.00000000	
          2.75400000	        -13.38272400	       1159.91821300	        -40.42039900	          0.87275600	          0.00000000	         -0.27209200	          0.00000000	          0.00000000	          0.00000000	          0.00000000	          0.00000000	          0.00000000	         -0.00000000	          2.48902700	         -0.00000000	          0.00000000	          0.00000000	          0.00000000	
